<svg id="auto_stories_black_24dp" xmlns="http://www.w3.org/2000/svg" width="115" height="115" viewBox="0 0 115 115">
  <path id="Path_3670" data-name="Path 3670" d="M0,0H115V115H0Z" fill="none"/>
  <path id="Path_3671" data-name="Path 3671" d="M87.25,1,63.292,24.958V77.667L87.25,56.1ZM1,24.958v70.2a2.576,2.576,0,0,0,2.4,2.4c.479,0,.719-.24,1.2-.24a58.485,58.485,0,0,1,22.76-5.271c9.344,0,19.406,1.917,26.354,7.188V24.958c-6.948-5.271-17.01-7.187-26.354-7.187S7.948,19.688,1,24.958ZM106.417,89.646V24.958a32.682,32.682,0,0,0-9.583-4.792V84.854a55.681,55.681,0,0,0-16.771-2.4c-8.146,0-19.885,3.115-26.354,7.188v9.583c6.469-4.073,18.208-7.187,26.354-7.187,7.906,0,16.052,1.438,22.76,5.031a2.16,2.16,0,0,0,1.2.24,2.576,2.576,0,0,0,2.4-2.4V89.646Z" transform="translate(3.792 3.792)" fill="#d14c2b"/>
</svg>
