<svg id="file-list-3-fill" xmlns="http://www.w3.org/2000/svg" width="115" height="115" viewBox="0 0 115 115">
  <path id="Path_3660" data-name="Path 3660" d="M0,0H115V115H0Z" fill="none"/>
  <path id="Path_3661" data-name="Path 3661" d="M83.458,97.833H16.375A14.375,14.375,0,0,1,2,83.458V6.792A4.792,4.792,0,0,1,6.792,2H73.875a4.792,4.792,0,0,1,4.792,4.792v57.5H97.833V83.458A14.375,14.375,0,0,1,83.458,97.833ZM78.667,73.875v9.583a4.792,4.792,0,1,0,9.583,0V73.875Zm-57.5-47.917v9.583H59.5V25.958Zm0,19.167v9.583H59.5V45.125Zm0,19.167v9.583H45.125V64.292Z" transform="translate(7.583 7.583)" fill="#d14c2b"/>
</svg>
